<?xml version="1.0" encoding="utf-8"?>

<!DOCTYPE svg PUBLIC "-//W3C//DTD SVG 1.1//EN" "http://www.w3.org/Graphics/SVG/1.1/DTD/svg11.dtd">
<!-- Uploaded to: SVG Repo, www.svgrepo.com, Generator: SVG Repo Mixer Tools -->
<svg height="800px" width="800px" version="1.1" id="_x32_" xmlns="http://www.w3.org/2000/svg" xmlns:xlink="http://www.w3.org/1999/xlink" 
	 viewBox="0 0 512 512"  xml:space="preserve">
<style type="text/css">
	.st0{fill:#000000;}
</style>
<g>
	<path class="st0" d="M486.653,242.047L512,240.851v-79.563c0-36.038-29.315-65.353-65.349-65.353H65.349
		C29.315,95.935,0,125.251,0,161.288v77.61l22.821,3.274c6.836,0.976,11.996,6.927,11.996,13.831
		c0,6.904-5.156,12.847-11.989,13.824L0,273.095v77.624c0,36.031,29.315,65.346,65.349,65.346h381.302
		c36.034,0,65.349-29.315,65.349-65.346v-79.585l-25.356-1.181c-7.475-0.354-13.331-6.478-13.331-13.949
		C473.314,248.534,479.174,242.401,486.653,242.047z M478.954,302.276v48.443c0,17.807-14.493,32.299-32.302,32.299H65.349
		c-17.81,0-32.302-14.492-32.302-32.299v-49.317c20.2-5.456,34.818-24.065,34.818-45.398c0-21.325-14.618-39.942-34.818-45.406
		v-49.31c0-17.814,14.493-32.306,32.302-32.306h381.302c17.81,0,32.302,14.493,32.302,32.306v48.436
		c-22.132,3.96-38.686,23.214-38.686,46.279C440.267,279.069,456.822,298.323,478.954,302.276z"/>
	<polygon class="st0" points="130.218,330.245 122.157,330.245 122.157,365.015 130.218,365.015 135.488,365.015 143.549,365.015 
		143.549,330.245 135.488,330.245 	"/>
	<polygon class="st0" points="130.218,269.158 122.157,269.158 122.157,303.929 130.218,303.929 135.488,303.929 143.549,303.929 
		143.549,269.158 135.488,269.158 	"/>
	<polygon class="st0" points="130.218,208.064 122.157,208.064 122.157,242.842 130.218,242.842 135.488,242.842 143.549,242.842 
		143.549,208.064 135.488,208.064 	"/>
	<polygon class="st0" points="130.218,146.985 122.157,146.985 122.157,181.756 130.218,181.756 135.488,181.756 143.549,181.756 
		143.549,146.985 135.488,146.985 	"/>
</g>
</svg>